<?xml version="1.0" encoding="UTF-8" standalone="no" ?>
<!DOCTYPE svg PUBLIC "-//W3C//DTD SVG 1.1//EN" "http://www.w3.org/Graphics/SVG/1.1/DTD/svg11.dtd">
<svg xmlns="http://www.w3.org/2000/svg" xmlns:xlink="http://www.w3.org/1999/xlink" version="1.1" width="1080" height="1080" viewBox="0 0 1080 1080" xml:space="preserve">
<desc>Created with Fabric.js 5.2.4</desc>
<defs>
</defs>
<rect x="0" y="0" width="100%" height="100%" fill="transparent"></rect>
<g transform="matrix(1 0 0 1 540 540)" id="2c92e7e4-b238-4ba1-8f0f-ffaa8fa5b6e2"  >
<rect style="stroke: none; stroke-width: 1; stroke-dasharray: none; stroke-linecap: butt; stroke-dashoffset: 0; stroke-linejoin: miter; stroke-miterlimit: 4; fill: rgb(255,255,255); fill-rule: nonzero; opacity: 1; visibility: hidden;" vector-effect="non-scaling-stroke"  x="-540" y="-540" rx="0" ry="0" width="1080" height="1080" />
</g>
<g transform="matrix(1 0 0 1 540 540)" id="1516e7e7-03c6-4e98-a779-7d3f955593a8"  >
</g>
<g transform="matrix(1.26 0 0 1.26 540 540)"  >
<g style="" vector-effect="non-scaling-stroke"   >
		<g transform="matrix(1 0 0 1 13.4 -25.35)"  >
<path style="stroke: none; stroke-width: 1; stroke-dasharray: none; stroke-linecap: butt; stroke-dashoffset: 0; stroke-linejoin: miter; stroke-miterlimit: 4; fill: rgb(77,77,77); fill-rule: nonzero; opacity: 1;" vector-effect="non-scaling-stroke"  transform=" translate(-493.4, -454.65)" d="M 673.4 766.9 L 279.3 766.9 L 279.3 142.4 L 673.5 142.4 C 692.3 142.4 707.5 157.6 707.5 176.4 L 707.5 732.9 C 707.5 751.7 692.2 766.9 673.4 766.9 z" stroke-linecap="round" />
</g>
		<g transform="matrix(1 0 0 1 7.95 -25.35)"  >
<path style="stroke: none; stroke-width: 1; stroke-dasharray: none; stroke-linecap: butt; stroke-dashoffset: 0; stroke-linejoin: miter; stroke-miterlimit: 4; fill: rgb(255,255,255); fill-rule: nonzero; opacity: 1;" vector-effect="non-scaling-stroke"  transform=" translate(-487.95, -454.65)" d="M 661.5 755.6 L 282.5 755.6 L 282.5 153.7 L 661.5 153.7 C 679.1 153.7 693.4 168 693.4 185.6 L 693.4 723.6 C 693.5 741.3 679.2 755.6 661.5 755.6 z" stroke-linecap="round" />
</g>
		<g transform="matrix(1 0 0 1 -13.35 -25.35)"  >
<path style="stroke: none; stroke-width: 1; stroke-dasharray: none; stroke-linecap: butt; stroke-dashoffset: 0; stroke-linejoin: miter; stroke-miterlimit: 4; fill: rgb(77,77,77); fill-rule: nonzero; opacity: 1;" vector-effect="non-scaling-stroke"  transform=" translate(-466.65, -454.65)" d="M 646.7 766.9 L 269.6 766.9 C 260.20000000000005 766.9 252.60000000000002 759.3 252.60000000000002 749.9 L 252.60000000000002 159.4 C 252.60000000000002 150 260.20000000000005 142.4 269.6 142.4 L 646.7 142.4 C 665.5 142.4 680.7 157.6 680.7 176.4 L 680.7 732.9 C 680.7 751.7 665.5 766.9 646.7 766.9 z" stroke-linecap="round" />
</g>
		<g transform="matrix(1 0 0 1 -13.4 9.1)"  >
<rect style="stroke: none; stroke-width: 1; stroke-dasharray: none; stroke-linecap: butt; stroke-dashoffset: 0; stroke-linejoin: miter; stroke-miterlimit: 4; fill: rgb(251,176,59); fill-rule: nonzero; opacity: 1;" vector-effect="non-scaling-stroke"  x="-214.1" y="-108.7" rx="0" ry="0" width="428.2" height="217.4" />
</g>
		<g transform="matrix(1 0 0 1 115.25 -25.3)"  >
<rect style="stroke: none; stroke-width: 1; stroke-dasharray: none; stroke-linecap: butt; stroke-dashoffset: 0; stroke-linejoin: miter; stroke-miterlimit: 4; fill: rgb(51,51,51); fill-rule: nonzero; opacity: 1;" vector-effect="non-scaling-stroke"  x="-19.55" y="-312.3" rx="0" ry="0" width="39.1" height="624.6" />
</g>
		<g transform="matrix(1 0 0 1 -165.15 312.25)"  >
<polygon style="stroke: none; stroke-width: 1; stroke-dasharray: none; stroke-linecap: butt; stroke-dashoffset: 0; stroke-linejoin: miter; stroke-miterlimit: 4; fill: rgb(251,176,59); fill-rule: nonzero; opacity: 1;" vector-effect="non-scaling-stroke"  points="-25.65,-25.35 -25.65,25.35 -0.05,10.15 25.65,25.35 25.65,-25.35 " />
</g>
</g>
</g>
</svg>